:SAMPLES-PER-SECOND 30
:FULLY-SPECIFIED
:DEGREES
330
root  -2.78761 40.9553 0.878981 0.407913 -86.1313 0.661316
RightUpLeg  4.04828 -0.754728 -0.166533
RightLeg  -3.31222 -20.946 1.30875
RightFoot  -1.12735 -0.162386 1.93899
RightToes  -3.10678e-008 1.75238e-005 3.56266e-009
Spine  0.32055 -1.6193 -11.7841
Spine1  1.01282 -4.08384 14.9116
HEad  -12.1465 -0.429596 -0.268339
LeftShoulder1  2.03134 -2.51419 -27.6634
LeftArm  -33.0625 24.2472 -53.1394
LeftForeArm  85.5626 -17.1155 -2.25552
LeftHand  -0.633605 -5.58129 7.01981
RightShoulder  2.15396 3.12561 26.5034
RightArm  -16.2123 -34.2731 49.0546
RightForeArm  32.5864 19.5541 4.82139
RightHand  -0.430168 5.2276 -5.0051
LeftUpLeg  1.78692 0.881941 2.08803
LeftLeg  -1.55828 10.2709 -0.681038
LeftFoot  -0.67001 0.24719 -2.59575
LeftToes  4.76857e-008 1.46588e-008 1.31384e-009
331
root  -2.78061 40.9521 0.855007 -0.64537 -84.8742 1.56293
RightUpLeg  4.35173 -0.868064 -0.182934
RightLeg  -3.37906 -22.1092 1.40045
RightFoot  -1.21099 -0.162507 1.9311
RightToes  -3.10678e-008 1.75238e-005 3.56266e-009
Spine  0.455379 -1.91867 -12.5995
Spine1  1.17336 -4.53687 15.6529
HEad  -11.3928 -1.02249 -0.427761
LeftShoulder1  2.01513 -2.48179 -27.5727
LeftArm  -27.8726 22.8149 -53.0429
LeftForeArm  70.7015 -22.2435 -2.40102
LeftHand  -0.739277 -4.98157 8.55821
RightShoulder  2.13282 3.04217 26.5984
RightArm  -17.3872 -33.6944 48.9566
RightForeArm  34.2689 18.8481 5.10424
RightHand  -0.475397 5.79617 -5.24904
LeftUpLeg  1.71613 0.77937 2.02102
LeftLeg  -1.43679 9.1296 -0.5814
LeftFoot  -0.619482 0.249124 -2.62875
LeftToes  4.76857e-008 1.46588e-008 1.31384e-009
332
root  -2.76374 40.9539 0.850013 -1.3895 -83.7621 2.32664
RightUpLeg  4.34919 -1.09125 -0.326183
RightLeg  -3.23718 -22.9496 1.51737
RightFoot  -1.34514 -0.165082 1.95994
RightToes  -3.10678e-008 1.75238e-005 3.56266e-009
Spine  0.364728 -2.0897 -13.1621
Spine1  1.43515 -4.81425 16.1514
HEad  -11.4747 -1.0953 -0.417773
LeftShoulder1  2.07161 -2.66366 -27.4953
LeftArm  -24.0235 22.1948 -53.1128
LeftForeArm  57.1334 -28.1217 -3.05861
LeftHand  -0.948004 -4.30691 11.6249
RightShoulder  2.09549 2.96516 26.4032
RightArm  -15.5774 -33.691 49.1605
RightForeArm  32.0892 19.6325 4.82913
RightHand  -0.51624 5.82785 -5.65784
LeftUpLeg  1.63136 0.638807 1.89593
LeftLeg  -1.66351 8.20653 -0.563453
LeftFoot  -0.365717 0.245061 -2.56839
LeftToes  4.76857e-008 1.46588e-008 1.31384e-009
333
root  -2.74606 40.9565 0.846168 -1.70418 -83.202 2.71141
RightUpLeg  4.32278 -1.14304 -0.377766
RightLeg  -3.30125 -23.4496 1.58692
RightFoot  -1.3611 -0.162446 1.90662
RightToes  -3.10678e-008 1.75238e-005 3.56266e-009
Spine  0.315226 -1.89033 -13.2412
Spine1  1.43621 -4.58954 16.0959
HEad  -11.7415 -1.63613 -0.29429
LeftShoulder1  2.06169 -2.6837 -27.2176
LeftArm  -25.1553 21.3432 -53.9609
LeftForeArm  55.5371 -32.7727 -4.22493
LeftHand  -1.08293 -3.56706 14.2051
RightShoulder  2.11127 3.00209 26.464
RightArm  -16.8588 -33.2961 49.3245
RightForeArm  32.988 19.0898 5.04329
RightHand  -0.517491 5.66175 -5.74304
LeftUpLeg  1.46723 0.512583 1.80488
LeftLeg  -1.68896 7.81441 -0.503128
LeftFoot  -0.273704 0.252034 -2.67977
LeftToes  4.76857e-008 1.46588e-008 1.31384e-009
334
root  -2.73063 40.9576 0.856453 -1.50766 -82.829 2.54645
RightUpLeg  4.37146 -1.14247 -0.364475
RightLeg  -3.46908 -23.8178 1.66117
RightFoot  -1.26649 -0.159787 1.8516
RightToes  -3.10678e-008 1.75238e-005 3.56266e-009
Spine  0.465217 -1.53232 -12.8594
Spine1  1.13958 -4.14166 15.7579
HEad  -11.8008 -2.26092 -0.256698
LeftShoulder1  2.04653 -2.63154 -27.2546
LeftArm  -25.8468 20.5919 -54.7426
LeftForeArm  55.3444 -35.8163 -4.94484
LeftHand  -1.26665 -3.41901 16.8774
RightShoulder  2.17154 3.18395 26.4802
RightArm  -16.6777 -33.3862 49.4539
RightForeArm  32.2041 19.4305 4.87797
RightHand  -0.485752 5.54451 -5.45875
LeftUpLeg  1.37308 0.449868 1.77218
LeftLeg  -1.71601 7.53199 -0.461101
LeftFoot  -0.204357 0.254601 -2.72276
LeftToes  4.76857e-008 1.46588e-008 1.31384e-009
335
root  -2.72762 40.9584 0.873469 -1.75612 -82.8098 2.73331
RightUpLeg  4.45614 -1.19335 -0.429743
RightLeg  -3.49124 -23.7616 1.66639
RightFoot  -1.26496 -0.164462 1.90906
RightToes  -3.10678e-008 1.75238e-005 3.56266e-009
Spine  0.0287356 -1.23307 -12.0946
Spine1  1.7063 -3.70124 14.7724
HEad  -11.96 -2.51904 -0.208405
LeftShoulder1  2.03812 -2.59984 -27.29
LeftArm  -26.9995 19.4482 -55.5289
LeftForeArm  52.845 -36.1607 -5.15222
LeftHand  -1.20386 -2.94906 16.9155
RightShoulder  2.22121 3.27332 26.797
RightArm  -16.3617 -32.6965 49.4859
RightForeArm  31.5945 19.548 4.84613
RightHand  -0.569887 6.38818 -5.94461
LeftUpLeg  1.44194 0.437484 1.72598
LeftLeg  -1.71979 7.54044 -0.477668
LeftFoot  -0.225731 0.25379 -2.71347
LeftToes  4.76857e-008 1.46588e-008 1.31384e-009
336
root  -2.72586 40.9589 0.887371 -1.83374 -82.8698 2.73026
RightUpLeg  4.54087 -1.16409 -0.429697
RightLeg  -3.50033 -23.712 1.6094
RightFoot  -1.22208 -0.170301 1.98329
RightToes  -3.10678e-008 1.75238e-005 3.56266e-009
Spine  0.0313503 -1.0425 -11.399
Spine1  1.71034 -3.35352 13.8674
HEad  -12.0863 -1.77705 -0.0928466
LeftShoulder1  2.00565 -2.52413 -27.1668
LeftArm  -28.7559 19.2212 -56.468
LeftForeArm  51.4143 -35.8549 -5.14566
LeftHand  -1.14081 -3.33834 15.3549
RightShoulder  2.27793 3.38428 27.1021
RightArm  -16.3924 -31.772 49.3079
RightForeArm  31.7714 19.1836 5.04112
RightHand  -0.497189 5.66845 -5.53205
LeftUpLeg  1.49365 0.465264 1.72032
LeftLeg  -1.62198 7.55188 -0.490119
LeftFoot  -0.290566 0.250475 -2.6656
LeftToes  4.76857e-008 1.46588e-008 1.31384e-009
337
root  -2.72798 40.9593 0.898785 -1.70139 -82.9472 2.51242
RightUpLeg  4.63376 -1.14782 -0.403783
RightLeg  -3.49827 -23.6638 1.58211
RightFoot  -1.23309 -0.172499 1.99969
RightToes  -3.10678e-008 1.75238e-005 3.56266e-009
Spine  0.0608096 -0.996773 -11.0097
Spine1  1.72963 -3.24768 13.4649
HEad  -11.3838 -2.07559 -0.777148
LeftShoulder1  2.07558 -2.66957 -27.5286
LeftArm  -30.3783 19.7867 -56.6643
LeftForeArm  52.4609 -35.2357 -4.94611
LeftHand  -0.995752 -3.42933 13.3274
RightShoulder  2.33098 3.51947 27.2245
RightArm  -15.7852 -31.0512 49.3266
RightForeArm  31.4922 19.6714 4.78343
RightHand  -0.464423 5.69046 -5.18133
LeftUpLeg  1.60848 0.478383 1.72797
LeftLeg  -1.6305 7.60108 -0.482972
LeftFoot  -0.344951 0.245491 -2.59223
LeftToes  4.76857e-008 1.46588e-008 1.31384e-009
